<svg width="18" height="18" viewBox="0 0 18 18" fill="none" xmlns="http://www.w3.org/2000/svg">
    <path fill-rule="evenodd" clip-rule="evenodd"
        d="M9.52994 2.91996C9.49325 2.6268 9.24313 2.39999 8.94003 2.39999C8.61167 2.39999 8.34548 2.66618 8.34548 2.99454V8.34545H2.99457L2.91999 8.35008C2.62683 8.38677 2.40002 8.6369 2.40002 8.94C2.40002 9.26835 2.66621 9.53454 2.99457 9.53454H8.34548V14.8854L8.35011 14.96C8.3868 15.2532 8.63693 15.48 8.94003 15.48C9.26838 15.48 9.53457 15.2138 9.53457 14.8854V9.53454H14.8855L14.9601 9.52991C15.2532 9.49322 15.48 9.2431 15.48 8.94C15.48 8.61164 15.2138 8.34545 14.8855 8.34545H9.53457V2.99454L9.52994 2.91996Z"
        fill="#283D47" />
</svg>
